<svg xmlns="http://www.w3.org/2000/svg" width="89" height="88" viewBox="0 0 89 88"><g><g><g><g><g><g><path fill="#fff" d="M24.053 55.363a1.27 1.27 0 0 1-1.166-.768 21.128 21.128 0 0 1-1.72-8.395c0-11.749 9.558-21.307 21.307-21.307a1.268 1.268 0 1 1 0 2.538c-10.35 0-18.77 8.42-18.77 18.77 0 2.571.51 5.057 1.514 7.392a1.27 1.27 0 0 1-1.165 1.77z"/></g></g><g><g><path fill="#fff" d="M60.398 40.606c.562 1.8.846 3.675.846 5.594 0 10.35-8.42 18.77-18.77 18.77-1.92 0-3.796-.284-5.596-.846zM42.474 67.507c11.75 0 21.307-9.558 21.307-21.307 0-2.914-.576-5.735-1.716-8.389a1.271 1.271 0 0 0-2.062-.396L33.687 63.729a1.268 1.268 0 0 0 .397 2.062 21.151 21.151 0 0 0 8.39 1.716z"/></g></g><g><g><path fill="#fff" d="M17.043 62.371c-.435 0-.86-.224-1.095-.627a30.468 30.468 0 0 1-3.219-7.756l-5.396-.624a1.27 1.27 0 0 1-1.124-1.26V41.41c0-.644.482-1.185 1.122-1.26l5.123-.594a30.475 30.475 0 0 1 3.481-8.877l-3.376-4.262a1.268 1.268 0 0 1 .098-1.686l7.563-7.562a1.271 1.271 0 0 1 1.685-.098l4.043 3.204a30.426 30.426 0 0 1 8.74-3.82l.622-5.397a1.27 1.27 0 0 1 1.26-1.124h10.696c.643 0 1.185.482 1.26 1.122l.594 5.123a30.47 30.47 0 0 1 8.895 3.494 1.269 1.269 0 0 1-1.285 2.188 27.919 27.919 0 0 0-8.998-3.377 1.268 1.268 0 0 1-1.024-1.1l-.57-4.914h-8.435l-.595 5.15a1.27 1.27 0 0 1-.977 1.091 27.896 27.896 0 0 0-9.532 4.176 1.268 1.268 0 0 1-1.503-.053l-3.878-3.074-5.964 5.965 3.222 4.066c.334.42.366 1.006.082 1.461a27.928 27.928 0 0 0-3.793 9.688c-.104.546-.55.96-1.1 1.026l-4.915.571v8.434l5.15.595a1.27 1.27 0 0 1 1.091.977 27.97 27.97 0 0 0 3.148 7.914 1.269 1.269 0 0 1-.451 1.736 1.26 1.26 0 0 1-.645.18z"/></g></g><g><g><path fill="#fff" d="M48.377 82.466H37.681a1.268 1.268 0 0 1-1.26-1.122l-.594-5.123a30.506 30.506 0 0 1-8.893-3.492 1.272 1.272 0 0 1-.255-1.992l7.006-7.008L67.01 30.406a1.267 1.267 0 0 1 1.992.256 30.598 30.598 0 0 1 3.216 7.755l5.397.623a1.27 1.27 0 0 1 1.124 1.26v10.696c0 .643-.482 1.185-1.122 1.26l-5.123.594a30.474 30.474 0 0 1-3.482 8.876l3.377 4.26c.4.507.359 1.23-.098 1.686l-7.563 7.563a1.271 1.271 0 0 1-1.685.098L59 72.129a30.39 30.39 0 0 1-9.615 4.034 1.269 1.269 0 1 1-.567-2.474 27.896 27.896 0 0 0 9.533-4.175 1.268 1.268 0 0 1 1.502.052l3.878 3.074 5.965-5.964-3.223-4.067a1.269 1.269 0 0 1-.081-1.46 27.928 27.928 0 0 0 3.793-9.69c.103-.545.55-.96 1.1-1.025l4.915-.57v-8.435l-5.15-.595a1.27 1.27 0 0 1-1.092-.977 27.877 27.877 0 0 0-2.352-6.46L29.67 71.335a27.922 27.922 0 0 0 7.548 2.579c.545.103.96.549 1.024 1.1l.57 4.915h8.439a1.27 1.27 0 0 1 2.508.371l-.121 1.042a1.27 1.27 0 0 1-1.26 1.124z"/></g></g><g><g><path fill="#1b3954" d="M35.04 43.103"/></g></g><g><g><path fill="#fff" d="M13.545 87.814a12.66 12.66 0 0 1-5.102-1.062 1.269 1.269 0 0 1 1.015-2.325c1.29.563 2.666.85 4.087.85 5.642 0 10.23-4.589 10.23-10.23 0-.27-.009-.513-.029-.745-.03-.372.104-.738.368-1l9.57-9.571L68.8 28.618c.237-.238.56-.372.897-.372h8.909l7.528-7.53.002-8.476-9.681 9.681a1.269 1.269 0 0 1-1.794 0l-7.902-7.905a1.27 1.27 0 0 1 0-1.794l9.681-9.681-8.478.002-7.526 7.528-.002 8.91c0 .338-.134.66-.371.898l-20.655 20.65a1.27 1.27 0 0 1-1.794-1.793l20.281-20.283.002-8.911c0-.337.134-.66.371-.897l8.27-8.272c.237-.237.56-.371.897-.371L79.13 0c.337 0 .66.134.897.372l.185.184a1.27 1.27 0 0 1 0 1.795L69.447 13.117l6.109 6.11 10.767-10.77c.237-.236.56-.37.897-.37h.003c.337 0 .662.135.9.376l.182.185c.236.238.366.558.366.892l-.002 11.696c0 .337-.134.66-.371.897l-8.271 8.273c-.238.238-.56.372-.897.372h-8.91L26.307 74.695c.004.114.006.23.006.351 0 7.041-5.73 12.768-12.768 12.768z"/></g></g><g><g><path fill="#fff" d="M5.584 84.275a1.296 1.296 0 0 1-.703-.214c-.071-.046-.136-.1-.194-.158a1.272 1.272 0 0 1-.346-.649 1.268 1.268 0 0 1 0-.496 1.276 1.276 0 0 1 .757-.923 1.278 1.278 0 0 1 .734-.072 1.269 1.269 0 0 1 .649.346c.058.058.112.123.157.194a1.276 1.276 0 0 1 .188.951 1.272 1.272 0 0 1-.346.649 1.231 1.231 0 0 1-.41.274 1.267 1.267 0 0 1-.486.098z"/></g></g><g><g><path fill="#fff" d="M3.09 81.107c-.48 0-.94-.274-1.154-.74a12.67 12.67 0 0 1-1.158-5.32c0-7.041 5.726-12.768 12.767-12.768.172 0 .344.004.517.01L31.16 45.192a1.27 1.27 0 0 1 1.795 1.794L15.45 64.49c-.267.266-.64.4-1.013.366a9.626 9.626 0 0 0-.892-.04c-5.642 0-10.23 4.589-10.23 10.23 0 1.488.311 2.922.928 4.263a1.269 1.269 0 0 1-1.153 1.798z"/></g></g><g><g><path fill="#fff" d="M17.224 75.046a3.684 3.684 0 0 1-4.205 3.641 3.685 3.685 0 0 1-3.153-3.64 3.684 3.684 0 0 1 3.679-3.68 3.684 3.684 0 0 1 3.679 3.68zm-3.679 6.217a6.225 6.225 0 0 0 6.218-6.217 6.224 6.224 0 0 0-6.216-6.216 6.224 6.224 0 0 0-6.153 7.1 6.226 6.226 0 0 0 6.151 5.333z"/></g></g><g><g><path fill="#fff" d="M17.224 75.046a3.684 3.684 0 0 1-4.205 3.641 3.685 3.685 0 0 1-3.153-3.64 3.684 3.684 0 0 1 3.679-3.68 3.684 3.684 0 0 1 3.679 3.68zm-3.679 6.217a6.225 6.225 0 0 0 6.218-6.217 6.224 6.224 0 0 0-6.216-6.216 6.224 6.224 0 0 0-6.153 7.1 6.226 6.226 0 0 0 6.151 5.333z"/></g></g></g></g></g></g></svg>