<svg xmlns="http://www.w3.org/2000/svg" width="84" height="79" viewBox="0 0 84 79"><g><g><g><g><g><g><path fill="#fff" d="M23.885 78.803a8.485 8.485 0 0 1-5.998-2.487c-3.304-3.304-3.304-8.683 0-11.99l14.115-14.115a1.206 1.206 0 0 1 1.703 1.703L19.59 66.03a6.077 6.077 0 0 0 0 8.583 6.077 6.077 0 0 0 4.625 1.77 6.076 6.076 0 0 0 4.402-2.262l13.694-17.07-6.654-9.048a1.206 1.206 0 0 1 1.94-1.428l7.204 9.794c.323.44.311 1.041-.031 1.468l-14.274 17.79a8.483 8.483 0 0 1-6.611 3.176z"/></g></g><g><g><path fill="#fff" d="M51.625 48.57a1.2 1.2 0 0 1-.852-.354l-7.536-7.536a1.206 1.206 0 0 1 0-1.704l9.737-9.74-2.509-9.365a1.202 1.202 0 0 1 .312-1.163l11.3-11.3a1.203 1.203 0 0 1 1.163-.312l8.067 2.163a1.204 1.204 0 0 1 .54 2.015l-8.619 8.62 1.612 6.023 6.028 1.614 8.62-8.619a1.203 1.203 0 0 1 2.014.54l2.163 8.067c.112.417-.007.86-.311 1.164l-11.3 11.3a1.203 1.203 0 0 1-1.163.311l-9.917-2.657-5.173 6.446a1.204 1.204 0 1 1-1.879-1.507l5.665-7.06c.3-.374.79-.534 1.251-.41l10.004 2.681 10.316-10.316-1.442-5.38-7.635 7.634a1.202 1.202 0 0 1-1.163.312l-7.37-1.974a1.207 1.207 0 0 1-.852-.852l-1.972-7.368a1.202 1.202 0 0 1 .312-1.163l7.635-7.635-5.381-1.442L52.974 19.92l2.509 9.366c.112.416-.007.859-.311 1.163l-9.378 9.38 6.685 6.685a1.206 1.206 0 0 1-.854 2.056z"/></g></g><g><g><path fill="#fff" d="M62.896 78.8a9.08 9.08 0 0 1-7.389-3.807L30.527 41.03a1.206 1.206 0 0 1 1.941-1.429l24.987 33.97c.003.005.009.01.012.017a6.583 6.583 0 0 0 5.43 2.803 6.602 6.602 0 0 0 4.698-1.948 6.61 6.61 0 0 0 1.948-4.704 6.612 6.612 0 0 0-1.948-4.705L34.34 31.782l-5.125 5.124a1.206 1.206 0 0 1-1.703-1.703l5.977-5.978c.47-.47 1.234-.47 1.704 0L69.299 63.33a9 9 0 0 1 2.653 6.409 9.01 9.01 0 0 1-2.653 6.408 9 9 0 0 1-6.403 2.653z"/></g></g><g><g><path fill="#fff" d="M31.714 26.632l2.184 2.183-7.389 7.389-2.343-2.342zm-5.205 12.48c.308 0 .618-.119.852-.354l9.09-9.091c.47-.47.47-1.234 0-1.704l-3.87-3.87a1.203 1.203 0 0 0-1.684-.017l-9.287 8.896a1.204 1.204 0 0 0-.019 1.723l4.066 4.064a1.2 1.2 0 0 0 .852.353z"/></g></g><g><g><path fill="#fff" d="M25.823 10.124c.289-.289.41-.705.325-1.106l-.888-4.095 2.015-2.015L38.44 14.074l-2.015 2.015-4.096-.888c-.4-.088-.817.036-1.106.325l-1.52 1.52-5.4-5.402zm3.882 9.83c.308 0 .616-.12.85-.355l1.906-1.907 4.096.888c.399.086.817-.036 1.106-.325l3.331-3.331c.47-.47.47-1.234 0-1.704L28.127.352a1.206 1.206 0 0 0-1.704 0l-3.331 3.332c-.29.289-.411.705-.325 1.106l.887 4.096-1.906 1.906c-.47.47-.47 1.234 0 1.704l7.105 7.105a1.2 1.2 0 0 0 .852.352z"/></g></g><g><g><path fill="#fff" d="M3.44 37.56A1.2 1.2 0 0 1 2.424 37a13.822 13.822 0 0 1-2.055-8.804 13.793 13.793 0 0 1 3.96-8.296l6.662-6.5a1.206 1.206 0 0 1 1.683 1.725L6.02 21.614c-3.353 3.355-4.22 8.51-2.29 12.75l7.532-7.531c.47-.47 1.233-.47 1.703 0l7.368 7.368L32.141 22.89l-13.43-13.43-.74.708a1.206 1.206 0 0 1-1.668-1.74l1.592-1.524a1.205 1.205 0 0 1 1.685.017l15.135 15.136a1.204 1.204 0 0 1-.019 1.72L21.15 36.757a1.205 1.205 0 0 1-1.685-.017l-7.352-7.353-7.82 7.82a1.198 1.198 0 0 1-.851.354z"/></g></g><g><g><path fill="#fff" d="M14.423 13.003a1.2 1.2 0 0 1-.46-.093 1.145 1.145 0 0 1-.208-.11 1.4 1.4 0 0 1-.184-.15 1.28 1.28 0 0 1-.15-.182 1.337 1.337 0 0 1-.11-.208 1.204 1.204 0 0 1-.093-.461 1.215 1.215 0 0 1 .537-1.002c.065-.043.134-.08.208-.11a1.214 1.214 0 0 1 1.311.26 1.208 1.208 0 0 1 0 1.704 1.212 1.212 0 0 1-.851.352z"/></g></g></g></g></g></g></svg>