<svg xmlns="http://www.w3.org/2000/svg" width="32" height="104" viewBox="0 0 32 104"><defs><clipPath id="4qmfa"><path fill="#fff" d="M16 0c8.837 0 16 7.163 16 16v72c0 8.837-7.163 16-16 16S0 96.837 0 88V16C0 7.163 7.163 0 16 0z"/></clipPath></defs><g><g><path fill="none" stroke="#0dbf4e" stroke-miterlimit="50" stroke-width="12" d="M16 0c8.837 0 16 7.163 16 16v72c0 8.837-7.163 16-16 16S0 96.837 0 88V16C0 7.163 7.163 0 16 0z" clip-path="url(&quot;#4qmfa&quot;)"/></g><g><path fill="#0dbf4e" d="M16 16a5 5 0 0 1 5 5v15a5 5 0 0 1-10 0V21a5 5 0 0 1 5-5z"/></g></g></svg>